<?xml version="1.0" encoding="UTF-8"?>
<!DOCTYPE svg PUBLIC "-//W3C//DTD SVG 1.1//EN" "http://www.w3.org/Graphics/SVG/1.1/DTD/svg11.dtd">
<!-- Creator: CorelDRAW -->
<svg xmlns="http://www.w3.org/2000/svg" xml:space="preserve" width="45px" height="2480px" version="1.1" style="shape-rendering:geometricPrecision; text-rendering:geometricPrecision; image-rendering:optimizeQuality; fill-rule:evenodd; clip-rule:evenodd"
viewBox="0 0 45 2480.45"
 xmlns:xlink="http://www.w3.org/1999/xlink"
 xmlns:xodm="http://www.corel.com/coreldraw/odm/2003">
 <defs>
  <style type="text/css">
   <![CDATA[
    .fil0 {fill:#712CDE;fill-rule:nonzero}
   ]]>
  </style>
 </defs>
 <g id="Camada_x0020_1">
  <metadata id="CorelCorpID_0Corel-Layer"/>
  <g id="_2184998818400">
   <path class="fil0" d="M-3832.05 800.21l-6.68 4.87c-0.12,0.09 -0.29,0.05 -0.35,-0.08l-21.14 -44.54c-0.08,-0.16 0.04,-0.33 0.2,-0.33l10.84 0c0.09,0 0.17,0.05 0.21,0.14l16.99 39.66c0.05,0.1 0.01,0.22 -0.07,0.28z"/>
   <path class="fil0" d="M-3826.49 760.13l9.49 0c0.16,0 0.28,0.17 0.22,0.33l-14 36.16c-0.08,0.2 -0.36,0.21 -0.45,0l-5.38 -12.55c-0.03,-0.06 -0.03,-0.13 0,-0.19l9.89 -23.6c0.04,-0.09 0.13,-0.15 0.23,-0.15z"/>
   <g>
    <path class="fil0" d="M-3754.52 793.51l-3.87 0c-0.09,0 -0.16,-0.08 -0.14,-0.17l4.45 -21.84c0.01,-0.07 0.07,-0.11 0.13,-0.11l3.88 0c0.09,0 0.15,0.08 0.13,0.16l-4.44 21.85c-0.02,0.06 -0.07,0.11 -0.14,0.11z"/>
    <path class="fil0" d="M-3746.07 771.37l3.78 0c0.14,0 0.24,0.13 0.21,0.27l-0.75 3.68c-0.02,0.11 -0.11,0.18 -0.21,0.18l-3.78 0c-0.14,0 -0.24,-0.12 -0.21,-0.26l0.75 -3.69c0.02,-0.1 0.11,-0.18 0.21,-0.18z"/>
    <path class="fil0" d="M-3776.11 777.86c0.09,0 0.16,0.09 0.14,0.17l-0.63 3.07c-0.01,0.07 -0.07,0.11 -0.13,0.11l-3.86 0c-0.13,0 -0.25,0.1 -0.27,0.23 -0.48,2.48 -0.92,4.56 -1.31,6.24 -0.23,1.01 -0.29,1.68 -0.17,2 0.48,1.28 2.66,0.94 3.72,0.67 0.24,-0.06 0.47,0.15 0.42,0.4l-0.45 2.22c-0.06,0.32 -0.32,0.57 -0.64,0.62 -3.51,0.67 -8.35,0.51 -7.33,-4.73 0.4,-2.05 0.93,-4.48 1.59,-7.27 0.05,-0.19 -0.1,-0.37 -0.3,-0.37l-1.63 0c-0.22,0 -0.38,-0.2 -0.34,-0.42l0.51 -2.49c0.05,-0.25 0.27,-0.43 0.53,-0.43l1.63 0c0.18,0 0.34,-0.13 0.37,-0.31l0.96 -4.7c0.03,-0.16 0.18,-0.28 0.34,-0.28l3.64 0c0.12,0 0.21,0.11 0.19,0.23l-0.97 4.76c-0.03,0.15 0.08,0.28 0.24,0.28l3.75 0z"/>
    <path class="fil0" d="M-3803.55 789.66c0.05,-0.24 0.32,-0.37 0.54,-0.26 2.28,1.17 4.68,1.56 7.19,1.18 1.45,-0.22 1.74,-2.15 0.32,-2.77 -0.95,-0.42 -3.27,-0.86 -5.13,-1.93 -2.47,-1.43 -2.24,-5.07 -0.25,-6.73 2.91,-2.42 8.04,-1.85 11.32,-0.5 0.05,0.02 0.08,0.07 0.07,0.13l-0.63 3.09c-0.02,0.09 -0.11,0.14 -0.19,0.1 -1.92,-0.88 -5.94,-2.14 -7.66,-0.49 -0.84,0.81 -0.03,1.78 0.79,1.99 2.33,0.58 6.15,1.47 6.67,3.91 0.75,3.43 -1.19,5.53 -4.34,6.2 -2.66,0.56 -5.63,0.34 -8.92,-0.67 -0.23,-0.07 -0.38,-0.31 -0.33,-0.55l0.55 -2.7z"/>
    <path class="fil0" d="M-3766.23 792.27c-0.31,0.26 -0.85,0.55 -1.61,0.87 -2.56,1.07 -5.91,1.13 -7.81,-1.05 -1.13,-1.3 -0.63,-4.26 0.05,-5.3 2.01,-3.12 7.11,-3.43 10.41,-2.88 0.46,0.07 0.87,-0.28 0.87,-0.74l0 -0.87c0,-0.55 -0.34,-1.03 -0.86,-1.21 -2.41,-0.81 -5.57,-0.17 -8.13,0.5 -0.05,0.01 -0.11,-0.04 -0.09,-0.09l0.61 -3.03c0.01,-0.03 0.04,-0.06 0.07,-0.06 3.45,-1.12 9.54,-1.78 12.02,1.37 0.79,1 0.62,3.04 0.41,3.96 -0.78,3.45 -1.42,6.61 -1.92,9.47 -0.03,0.18 -0.19,0.3 -0.36,0.3l-3.39 0c-0.18,0 -0.31,-0.13 -0.32,-0.3 0,-0.17 0.06,-0.45 0.19,-0.85 0.03,-0.08 -0.07,-0.15 -0.14,-0.09zm1.08 -5.7c-2.07,-0.37 -3.78,-0.31 -5.13,0.2 -1.32,0.5 -2.21,1.83 -1.6,3.2 0.25,0.55 0.76,0.88 1.51,0.96 1.78,0.2 3.33,-0.35 4.66,-1.67 0.12,-0.11 0.2,-0.26 0.24,-0.42l0.51 -1.98c0.03,-0.13 -0.05,-0.26 -0.19,-0.29z"/>
    <path class="fil0" d="M-3806.85 790.3l-0.48 2.37c-0.06,0.26 -0.26,0.47 -0.52,0.53 -3.82,0.86 -9.06,1.48 -11.69,-2.11 -0.51,-0.69 -0.81,-1.58 -0.89,-2.68 -0.54,-6.86 4.38,-12.09 11.46,-10.63 4.76,0.98 4.41,5.14 3.72,8.88 -0.02,0.15 -0.14,0.25 -0.28,0.25l-10.17 0.02c-0.72,0 -1.16,0.78 -0.79,1.4l0.42 0.7c0.53,0.87 1.43,1.45 2.43,1.58 2.13,0.25 4.27,0.04 6.43,-0.63 0.2,-0.06 0.39,0.11 0.36,0.32zm-8.98 -6.4c-0.05,0.17 0.07,0.33 0.24,0.33l6.27 0c0.53,0 0.93,-0.49 0.81,-1.02l-0.21 -0.98c-0.17,-0.81 -0.84,-1.43 -1.65,-1.55 -2.82,-0.41 -4.63,0.66 -5.46,3.22z"/>
    <path class="fil0" d="M-3712.98 790.31l-0.48 2.36c-0.05,0.27 -0.26,0.48 -0.52,0.54 -3.82,0.85 -9.06,1.45 -11.69,-2.14 -0.51,-0.69 -0.8,-1.58 -0.89,-2.68 -0.51,-6.86 4.41,-12.09 11.5,-10.61 4.75,0.99 4.39,5.15 3.7,8.9 -0.03,0.14 -0.15,0.24 -0.29,0.24l-10.17 0c-0.71,0 -1.16,0.78 -0.79,1.4l0.42 0.7c0.52,0.87 1.42,1.45 2.43,1.58 2.13,0.26 4.27,0.06 6.42,-0.61 0.21,-0.07 0.41,0.11 0.36,0.32zm-8.94 -6.41c-0.06,0.16 0.06,0.32 0.23,0.33l6.24 0.02c0.53,0 0.93,-0.49 0.82,-1.02l-0.21 -0.98c-0.17,-0.81 -0.83,-1.42 -1.65,-1.54 -2.8,-0.43 -4.61,0.64 -5.43,3.19z"/>
    <path class="fil0" d="M-3747.26 777.86l3.63 0c0.16,0 0.27,0.14 0.24,0.3l-3.09 15.16c-0.02,0.12 -0.12,0.2 -0.24,0.2l-3.63 0c-0.16,0 -0.28,-0.14 -0.25,-0.3l3.09 -15.16c0.03,-0.12 0.13,-0.2 0.25,-0.2z"/>
    <path class="fil0" d="M-3727.47 780.95l-9.42 8.94c-0.13,0.12 -0.05,0.34 0.13,0.34l7.76 0c0.12,0 0.21,0.11 0.19,0.24l-0.6 2.9c-0.01,0.09 -0.09,0.16 -0.19,0.16l-13.61 0c-0.12,0 -0.22,-0.12 -0.19,-0.24l0.49 -2.41c0.01,-0.04 0.03,-0.08 0.05,-0.1l9.7 -9.2c0.13,-0.12 0.04,-0.34 -0.14,-0.34l-7.32 0c-0.12,0 -0.21,-0.11 -0.19,-0.24l0.61 -2.98c0.02,-0.09 0.1,-0.15 0.19,-0.15l12.96 0c0.12,0 0.22,0.11 0.2,0.23l-0.57 2.75c0,0.04 -0.02,0.07 -0.05,0.1z"/>
   </g>
  </g>
 </g>
</svg>
