<?xml version="1.0" encoding="UTF-8"?>
<!DOCTYPE svg PUBLIC "-//W3C//DTD SVG 1.1//EN" "http://www.w3.org/Graphics/SVG/1.1/DTD/svg11.dtd">
<!-- Creator: CorelDRAW -->
<svg xmlns="http://www.w3.org/2000/svg" xml:space="preserve" width="150px" height="106px" version="1.1" style="shape-rendering:geometricPrecision; text-rendering:geometricPrecision; image-rendering:optimizeQuality; fill-rule:evenodd; clip-rule:evenodd"
viewBox="0 0 150 106.06"
 xmlns:xlink="http://www.w3.org/1999/xlink"
 xmlns:xodm="http://www.corel.com/coreldraw/odm/2003">
 <defs>
  <style type="text/css">
   <![CDATA[
    .fil0 {fill:#7C3AED}
    .fil1 {fill:#010101;fill-rule:nonzero}
   ]]>
  </style>
 </defs>
 <g id="Camada_x0020_1">
  <metadata id="CorelCorpID_0Corel-Layer"/>
  <rect class="fil0" x="-55.67" y="42.85" width="14.38" height="14.38" rx="1.55" ry="1.55"/>
  <g id="_2712283309152">
   <path class="fil1" d="M-48.06 44.04l-0.01 5.99c0,0.02 -0.02,0.04 -0.04,0.04l-5.99 0.01c0,0 0,0 0,0 -0.02,0 -0.04,-0.02 -0.04,-0.04 0,-0.02 0,-0.03 0.01,-0.03l5.99 -6c0.01,-0.01 0.02,-0.01 0.03,-0.01 0.03,0 0.05,0.02 0.05,0.04 0,0 0,0 0,0zm-0.31 0.74c0,0 0,0 0,0 0,-0.02 -0.02,-0.04 -0.04,-0.04 -0.01,0 -0.03,0.01 -0.03,0.01l-4.94 4.94c-0.01,0.01 -0.02,0.02 -0.02,0.03 0,0.03 0.02,0.05 0.05,0.05 0,0 0,0 0,0l4.93 -0.01c0.03,0 0.05,-0.01 0.05,-0.04l0 -4.94z"/>
   <path class="fil1" d="M-53.75 50.57l5.21 5.21c0.05,0.05 0.05,0.12 0,0.16l-0.06 0.06c-0.04,0.04 -0.11,0.04 -0.15,0l-5.22 -5.21c-0.04,-0.04 -0.04,-0.11 0,-0.16l0.07 -0.06c0.04,-0.04 0.11,-0.04 0.15,0z"/>
   <path class="fil1" d="M-47.93 56.08l-0.22 0c-0.02,0 -0.04,-0.02 -0.04,-0.04l0 -5.08c0,-0.02 0.02,-0.04 0.04,-0.04l5.3 0c0,0 0,0 0,0 0.02,0 0.04,0.02 0.04,0.04 0,0.01 -0.01,0.02 -0.01,0.03l-5.08 5.08c-0.01,0.01 -0.02,0.01 -0.03,0.01 0,0 0,0 0,0l0 0z"/>
  </g>
 </g>
</svg>
