<?xml version="1.0" encoding="UTF-8"?>
<!DOCTYPE svg PUBLIC "-//W3C//DTD SVG 1.1//EN" "http://www.w3.org/Graphics/SVG/1.1/DTD/svg11.dtd">
<!-- Creator: CorelDRAW -->
<svg xmlns="http://www.w3.org/2000/svg" xml:space="preserve" width="3508px" height="2480px" version="1.1" style="shape-rendering:geometricPrecision; text-rendering:geometricPrecision; image-rendering:optimizeQuality; fill-rule:evenodd; clip-rule:evenodd"
viewBox="0 0 3508 2480.4"
 xmlns:xlink="http://www.w3.org/1999/xlink"
 xmlns:xodm="http://www.corel.com/coreldraw/odm/2003">
 <defs>
  <style type="text/css">
   <![CDATA[
    .fil0 {fill:#7C3AED}
    .fil1 {fill:white;fill-rule:nonzero}
   ]]>
  </style>
 </defs>
 <g id="Camada_x0020_1">
  <metadata id="CorelCorpID_0Corel-Layer"/>
  <rect class="fil0" x="-1301.86" y="1002.13" width="336.28" height="336.28" rx="36.24" ry="36.24"/>
  <g id="_2710243048256">
   <path class="fil1" d="M-1123.99 1030.01l-0.12 140.03c0,0.57 -0.46,1.03 -1.03,1.03l-140.04 0.13c0,0 0,0 -0.01,0 -0.57,0 -1.03,-0.46 -1.03,-1.03 0,-0.27 0.11,-0.53 0.29,-0.72l140.19 -140.19c0.2,-0.19 0.45,-0.29 0.72,-0.29 0.57,0 1.03,0.46 1.03,1.03 0,0 0,0 0,0.01zm-7.28 17.34c0,0 0,0 0,0 0,-0.54 -0.43,-0.97 -0.97,-0.97 -0.25,0 -0.5,0.1 -0.68,0.28l-115.54 115.54c-0.18,0.18 -0.28,0.43 -0.28,0.69 0,0.53 0.43,0.97 0.96,0.97 0.01,0 0.01,0 0.01,0l115.5 -0.04c0.54,0 0.97,-0.43 0.97,-0.96l0.03 -115.51z"/>
   <path class="fil1" d="M-1256.97 1182.66l121.9 121.89c1.01,1.02 1.01,2.66 0,3.67l-1.46 1.46c-1.02,1.02 -2.66,1.02 -3.67,0l-121.89 -121.89c-1.01,-1.01 -1.01,-2.66 0,-3.67l1.46 -1.46c1.01,-1.01 2.65,-1.01 3.67,0z"/>
   <path class="fil1" d="M-1121.02 1311.58l-4.97 0c-0.53,0 -0.97,-0.43 -0.97,-0.97l0 -118.82c0,-0.53 0.44,-0.97 0.97,-0.97l123.79 0.01c0,-0.01 0,-0.01 0,-0.01 0.54,0 0.97,0.44 0.97,0.97 0,0.26 -0.1,0.51 -0.28,0.69l-118.82 118.82c-0.18,0.18 -0.43,0.28 -0.68,0.28 0,0 -0.01,0 -0.01,0l0 0z"/>
  </g>
 </g>
</svg>
